<svg version="1.1" id="Layer_1" xmlns="http://www.w3.org/2000/svg" xmlns:xlink="http://www.w3.org/1999/xlink" x="0px" y="0px" width="32px" height="32px" viewBox="0 0 32 32" enable-background="new 0 0 32 32" xml:space="preserve">
  <g id="icon">
    <path d="M30,29.5H2c-0.2761,0,-0.5,-0.2239,-0.5,-0.5V7.5h29v21.5C30.5,29.2761,30.2761,29.5,30,29.5z" fill="#FFFFFF" stroke="#6D6E71" stroke-width="1" stroke-miterlimit="10"/>
    <path d="M31,8H1V3.4c0,-0.7732,0.6268,-1.4,1.4,-1.4h27.2c0.7732,0,1.4,0.6268,1.4,1.4V8z" fill="#217346"/>
    <line x1="2" y1="14.5" x2="30" y2="14.5" fill="none" stroke="#797979" stroke-width="1" stroke-miterlimit="10"/>
    <rect x="2" y="8" width="28" height="6" fill="#E6E7E8"/>
    <path d="M19.1985,20.8771L17,18.723v5.0062c0,0.1489,-0.1218,0.2708,-0.2708,0.2708h-0.5154h-0.5129h-0.439c-0.1446,0,-0.2619,-0.1173,-0.2619,-0.2619v-5.0062l-2.1991,2.1358c-0.1125,0.1092,-0.3009,0.0295,-0.3009,-0.1272v-1.9246c0,-0.2788,0.1111,-0.5456,0.3094,-0.7416c1.0625,-1.0502,2.5577,-2.5281,3.0504,-3.0149c0.0802,-0.0793,0.2085,-0.0786,0.288,0.0014c0.483,0.4861,1.9781,1.9633,3.0421,3.0132c0.1987,0.1961,0.31,0.4631,0.31,0.7422v1.9343C19.5,20.9076,19.3108,20.9871,19.1985,20.8771z" fill-rule="evenodd" fill="#6D6E71"/>
  </g>
</svg>
